<svg xmlns="http://www.w3.org/2000/svg" viewBox="0 0 100 100" fill="none">
  <defs>
    <linearGradient id="planeGrad" x1="0%" y1="100%" x2="100%" y2="0%">
      <stop offset="0%" stop-color="#22D3EE" />
      <stop offset="50%" stop-color="#3B82F6" />
      <stop offset="100%" stop-color="#8B5CF6" />
    </linearGradient>
    <filter id="glow" x="-30%" y="-30%" width="160%" height="160%">
      <feGaussianBlur stdDeviation="3" result="blur" />
      <feComposite in="SourceGraphic" in2="blur" operator="over" />
    </filter>
  </defs>

  <g transform="translate(18, 16) scale(2.8)" filter="url(#glow)">
    <!-- Aeroplane Icon -->
    <path d="M17.8 19.2 L 16 11 L 19.5 7.5 C 21 6 21.5 4 21 3 C 20 2.5 18 3 16.5 4.5 L 13 8 L 4.8 6.2 C 4.3 6.1 3.9 6.4 3.7 6.9 L 2.7 9.4 C 2.4 10.1 3 10.8 3.7 10.8 L 10 11.9 L 7.1 14.8 L 3.9 14 C 3.5 13.9 3.1 14.1 2.9 14.5 L 2.4 15.8 C 2.2 16.3 2.6 16.8 3.1 16.9 L 7.1 17.7 L 11.7 22.3 C 12.1 22.7 12.6 22.7 13 22.3 L 15.5 19.8 C 15.8 19.5 15.8 19 15.5 18.7 L 17.8 19.2 Z" 
          fill="url(#planeGrad)" />
    
    <!-- Motion trail -->
    <path d="M -4 28 C 2 28, 6 22, 10 18" stroke="#22D3EE" stroke-width="1.2" stroke-dasharray="1.5, 2.5" opacity="0.7" fill="none" stroke-linecap="round" />
  </g>
</svg>